<svg width="300" height="300" viewBox="0 0 300 300" fill="none" xmlns="http://www.w3.org/2000/svg">
<path fill-rule="evenodd" clip-rule="evenodd" d="M25 75C25 54.2893 41.7893 37.5 62.5 37.5H237.5C258.211 37.5 275 54.2893 275 75V250C275 270.711 258.211 287.5 237.5 287.5H62.5C41.7893 287.5 25 270.711 25 250V75ZM62.5 62.5C55.5964 62.5 50 68.0964 50 75V250C50 256.904 55.5964 262.5 62.5 262.5H237.5C244.404 262.5 250 256.904 250 250V75C250 68.0964 244.404 62.5 237.5 62.5H62.5Z" fill="#004976"/>
<path fill-rule="evenodd" clip-rule="evenodd" d="M200 12.5C206.904 12.5 212.5 18.0964 212.5 25V75C212.5 81.9036 206.904 87.5 200 87.5C193.096 87.5 187.5 81.9036 187.5 75V25C187.5 18.0964 193.096 12.5 200 12.5Z" fill="#004976"/>
<path fill-rule="evenodd" clip-rule="evenodd" d="M100 12.5C106.904 12.5 112.5 18.0964 112.5 25V75C112.5 81.9036 106.904 87.5 100 87.5C93.0964 87.5 87.5 81.9036 87.5 75V25C87.5 18.0964 93.0964 12.5 100 12.5Z" fill="#004976"/>
<path fill-rule="evenodd" clip-rule="evenodd" d="M25 125C25 118.096 30.5964 112.5 37.5 112.5H262.5C269.404 112.5 275 118.096 275 125C275 131.904 269.404 137.5 262.5 137.5H37.5C30.5964 137.5 25 131.904 25 125Z" fill="#004976"/>
</svg>
