<svg width="300" height="300" viewBox="0 0 300 300" fill="none" xmlns="http://www.w3.org/2000/svg">
<path fill-rule="evenodd" clip-rule="evenodd" d="M156.217 49.9999C141.688 49.9621 127.355 53.3567 114.386 59.9075L114.338 59.9314C82.581 75.8032 62.5137 108.252 62.5 143.755L62.4999 143.783C62.462 158.312 65.8567 172.645 72.4074 185.614C73.9101 188.589 74.1625 192.041 73.1085 195.203L57.2642 242.736L104.797 226.891C107.959 225.838 111.411 226.09 114.386 227.593C127.355 234.143 141.688 237.538 156.217 237.5L156.245 237.5C191.748 237.486 224.197 217.419 240.069 185.662L240.092 185.614C246.643 172.645 250.038 158.312 250 143.783L262.5 143.75H250V137.855C247.223 90.5364 209.464 52.7774 162.145 50H156.25L156.217 49.9999ZM275 143.736C275.045 162.187 270.735 180.389 262.42 196.86C242.314 237.069 201.225 262.477 156.269 262.5H156.255L156.25 250L156.283 262.5L156.269 262.5C139.585 262.542 123.106 259.022 107.924 252.201L41.4528 274.359C36.9611 275.856 32.009 274.687 28.6611 271.339C25.3132 267.991 24.1442 263.039 25.6414 258.547C25.6414 258.547 45.5976 190.402 47.7986 192.076C47.7986 192.076 37.4585 160.415 37.5 143.732L37.5 143.745L50 143.75L37.5 143.717L37.5 143.732C37.5224 98.7758 62.9298 57.6871 103.138 37.5806L103.114 37.5925L108.75 48.75L103.162 37.5687L103.138 37.5806C119.611 29.2649 137.813 24.9545 156.266 25H162.5C162.73 25 162.959 25.0063 163.189 25.019C223.498 28.3462 271.654 76.5021 274.981 136.811C274.994 137.041 275 137.27 275 137.5V143.736Z" fill="#004976"/>
<rect x="90" y="110" width="135" height="16" rx="8" fill="#004976"/>
<rect x="90" y="138" width="135" height="16" rx="8" fill="#004976"/>
<rect x="90" y="166" width="93" height="16" rx="8" fill="#004976"/>
</svg>
