<svg width="300" height="300" viewBox="0 0 300 300" fill="none" xmlns="http://www.w3.org/2000/svg">
<path fill-rule="evenodd" clip-rule="evenodd" d="M150 37.5C87.868 37.5 37.5 87.868 37.5 150C37.5 212.132 87.868 262.5 150 262.5C212.132 262.5 262.5 212.132 262.5 150C262.5 87.868 212.132 37.5 150 37.5ZM12.5 150C12.5 74.0608 74.0608 12.5 150 12.5C225.939 12.5 287.5 74.0608 287.5 150C287.5 225.939 225.939 287.5 150 287.5C74.0608 287.5 12.5 225.939 12.5 150Z" fill="#004976"/>
<path fill-rule="evenodd" clip-rule="evenodd" d="M150 62.5C156.904 62.5 162.5 68.0964 162.5 75V142.275L205.59 163.82C211.765 166.907 214.268 174.415 211.18 180.59C208.093 186.765 200.585 189.268 194.41 186.18L144.41 161.18C140.175 159.063 137.5 154.735 137.5 150V75C137.5 68.0964 143.096 62.5 150 62.5Z" fill="#004976"/>
</svg>
